<svg id="AU_Formal_Horizontal" data-name="AU Formal Horizontal" xmlns="http://www.w3.org/2000/svg" viewBox="0 0 119.37 104.5"><path d="M32.75,79.2c7,5.21,21.53,5.73,26.93,5.73s20-.52,26.94-5.73H70.88V63h9.58l-4.35-7.72H43.26L38.91,63h9.58V79.2Zm8-17.29,3.13-5.55H75.47l3.13,5.55H69.79V80.29H82.45c-7.7,3.31-19.51,3.55-22.77,3.55s-15.06-.24-22.76-3.55H49.57V61.91Z"/><path d="M52.65,38.63H66.72l-7-12.49Zm1.85-1.09,5.18-9.19,5.18,9.19Z"/><path d="M86.47,30,91,38V30Zm3.42,3.85-1.56-2.77h1.56Z"/><path d="M119.37,31.62V13.45H81.23v3.92L71.43,0H47.93L38.14,17.37V13.45H0V31.62H7.24V61.91H.35V80.29H7.67c1.81,8.77,10.87,24.21,52,24.21s50.21-15.44,52-24.21H119V61.91h-6.9V31.62ZM117.93,63V79.2H110.8c-1.32,8.22-9.29,24.22-51.12,24.22S9.89,87.42,8.57,79.2H1.43V63h6.9V30.53H1.09v-16h36v7L48.57,1.09H70.8L82.31,21.5v-7h36v16H111V63Z"/><path d="M32.89,30h-4.5v8Zm-3.42,1.08H31l-1.57,2.77Z"/><polygon points="115.01 17.82 85.59 17.82 85.59 27.25 93.71 27.25 93.71 41.72 105.71 62.99 107.76 62.99 107.76 27.25 115.01 27.25 115.01 17.82"/><path d="M59.68,88.2c-11.46,0-26-1.88-31.61-9H11.88c2,10.88,15.36,20.94,47.8,20.94s45.84-10.06,47.81-20.94H91.3C85.65,86.32,71.14,88.2,59.68,88.2Z"/><polygon points="11.61 62.99 13.66 62.99 25.66 41.72 25.66 27.25 33.78 27.25 33.78 17.82 4.36 17.82 4.36 27.25 11.61 27.25 11.61 62.99"/><path d="M112.17,88.13a2.77,2.77,0,1,0,2.77,2.77A2.77,2.77,0,0,0,112.17,88.13Zm0,4.94a2.18,2.18,0,1,1,2.18-2.17A2.18,2.18,0,0,1,112.17,93.07Z"/><path d="M113.31,90.25a.94.94,0,0,0-.94-.94H111v3.17h.6V91.19h.42l.6,1.29h.66l-.63-1.34A.94.94,0,0,0,113.31,90.25Zm-.94.35h-.74v-.69h.74a.34.34,0,0,1,.34.34A.35.35,0,0,1,112.37,90.6Z"/><path d="M68.89,4.36H50.48L15.58,66.27H4.71v9.66h40.5V66.27H33.3l8-14.27H78l8,14.27H74.15v9.66h40.51V66.27H103.79ZM47,41.9,59.68,19.47,72.33,41.9Z"/></svg>