<?xml version="1.0" encoding="UTF-8" standalone="no" ?>
<!DOCTYPE svg PUBLIC "-//W3C//DTD SVG 1.1//EN" "http://www.w3.org/Graphics/SVG/1.1/DTD/svg11.dtd">
<svg xmlns="http://www.w3.org/2000/svg" xmlns:xlink="http://www.w3.org/1999/xlink" version="1.1" width="1080" height="1080" viewBox="0 0 1080 1080" xml:space="preserve">
<desc>Created with Fabric.js 5.2.4</desc>
<defs>
</defs>
<rect x="0" y="0" width="100%" height="100%" fill="transparent"></rect>
<g transform="matrix(1 0 0 1 540 540)" id="9e7b6a98-6fe6-4bef-93f2-297d0591978f"  >
<rect style="stroke: none; stroke-width: 1; stroke-dasharray: none; stroke-linecap: butt; stroke-dashoffset: 0; stroke-linejoin: miter; stroke-miterlimit: 4; fill: rgb(255,255,255); fill-rule: nonzero; opacity: 1; visibility: hidden;" vector-effect="non-scaling-stroke"  x="-540" y="-540" rx="0" ry="0" width="1080" height="1080" />
</g>
<g transform="matrix(1 0 0 1 540 540)" id="6f9f30cf-5c5c-4a12-bb62-4d32b326262a"  >
</g>
<g transform="matrix(1 0 0 1 540 540)"  >
<g style="" vector-effect="non-scaling-stroke"   >
		<g transform="matrix(1 0 0 1 0 17.86)"  >
<path style="stroke: none; stroke-width: 1; stroke-dasharray: none; stroke-linecap: butt; stroke-dashoffset: 0; stroke-linejoin: miter; stroke-miterlimit: 4; fill: rgb(255,255,255); fill-rule: nonzero; opacity: 1;" vector-effect="non-scaling-stroke"  transform=" translate(-59.69, -70.11)" d="M 32.75 79.2 C 39.75 84.41 54.28 84.93 59.68 84.93 C 65.08 84.93 79.68 84.41000000000001 86.62 79.2 L 70.88 79.2 L 70.88 63 L 80.46 63 L 76.11 55.28 L 43.26 55.28 L 38.91 63 L 48.489999999999995 63 L 48.489999999999995 79.2 Z M 40.75 61.910000000000004 L 43.88 56.36000000000001 L 75.47 56.36000000000001 L 78.6 61.910000000000004 L 69.79 61.910000000000004 L 69.79 80.29 L 82.45 80.29 C 74.75 83.60000000000001 62.94 83.84 59.68000000000001 83.84 C 56.420000000000016 83.84 44.620000000000005 83.60000000000001 36.92 80.29 L 49.57 80.29 L 49.57 61.91 Z" stroke-linecap="round" />
</g>
		<g transform="matrix(1 0 0 1 0 -19.86)"  >
<path style="stroke: none; stroke-width: 1; stroke-dasharray: none; stroke-linecap: butt; stroke-dashoffset: 0; stroke-linejoin: miter; stroke-miterlimit: 4; fill: rgb(255,255,255); fill-rule: nonzero; opacity: 1;" vector-effect="non-scaling-stroke"  transform=" translate(-59.69, -32.39)" d="M 52.65 38.63 L 66.72 38.63 L 59.72 26.14 Z M 54.5 37.54 L 59.68 28.35 L 64.86 37.54 Z" stroke-linecap="round" />
</g>
		<g transform="matrix(1 0 0 1 29.05 -18.25)"  >
<path style="stroke: none; stroke-width: 1; stroke-dasharray: none; stroke-linecap: butt; stroke-dashoffset: 0; stroke-linejoin: miter; stroke-miterlimit: 4; fill: rgb(255,255,255); fill-rule: nonzero; opacity: 1;" vector-effect="non-scaling-stroke"  transform=" translate(-88.73, -34)" d="M 86.47 30 L 91 38 L 91 30 Z M 89.89 33.85 L 88.33 31.080000000000002 L 89.89 31.080000000000002 Z" stroke-linecap="round" />
</g>
		<g transform="matrix(1 0 0 1 0 0)"  >
<path style="stroke: none; stroke-width: 1; stroke-dasharray: none; stroke-linecap: butt; stroke-dashoffset: 0; stroke-linejoin: miter; stroke-miterlimit: 4; fill: rgb(255,255,255); fill-rule: nonzero; opacity: 1;" vector-effect="non-scaling-stroke"  transform=" translate(-59.69, -52.25)" d="M 119.37 31.62 L 119.37 13.45 L 81.23 13.45 L 81.23 17.369999999999997 L 71.43 0 L 47.93 0 L 38.14 17.37 L 38.14 13.45 L 0 13.45 L 0 31.62 L 7.24 31.62 L 7.24 61.91 L 0.35 61.91 L 0.35 80.29 L 7.67 80.29 C 9.48 89.06 18.54 104.5 59.67 104.5 C 100.80000000000001 104.5 109.88 89.06 111.67 80.28999999999999 L 119 80.28999999999999 L 119 61.91 L 112.1 61.91 L 112.1 31.62 Z M 117.93 63 L 117.93 79.2 L 110.8 79.2 C 109.48 87.42 101.50999999999999 103.42 59.68 103.42 C 17.85000000000001 103.42 9.89 87.42 8.57 79.2 L 1.43 79.2 L 1.43 63 L 8.33 63 L 8.33 30.53 L 1.09 30.53 L 1.09 14.530000000000001 L 37.09 14.530000000000001 L 37.09 21.53 L 48.57 1.09 L 70.8 1.09 L 82.31 21.5 L 82.31 14.5 L 118.31 14.5 L 118.31 30.5 L 111 30.5 L 111 63 Z" stroke-linecap="round" />
</g>
		<g transform="matrix(1 0 0 1 -29.05 -18.25)"  >
<path style="stroke: none; stroke-width: 1; stroke-dasharray: none; stroke-linecap: butt; stroke-dashoffset: 0; stroke-linejoin: miter; stroke-miterlimit: 4; fill: rgb(255,255,255); fill-rule: nonzero; opacity: 1;" vector-effect="non-scaling-stroke"  transform=" translate(-30.64, -34)" d="M 32.89 30 L 28.39 30 L 28.39 38 Z M 29.47 31.08 L 31 31.08 L 29.43 33.85 Z" stroke-linecap="round" />
</g>
		<g transform="matrix(1 0 0 1 40.62 -11.84)"  >
<polygon style="stroke: none; stroke-width: 1; stroke-dasharray: none; stroke-linecap: butt; stroke-dashoffset: 0; stroke-linejoin: miter; stroke-miterlimit: 4; fill: rgb(255,255,255); fill-rule: nonzero; opacity: 1;" vector-effect="non-scaling-stroke"  points="14.71,-22.59 -14.71,-22.59 -14.71,-13.16 -6.59,-13.16 -6.59,1.31 5.41,22.59 7.46,22.59 7.46,-13.16 14.71,-13.16 14.71,-22.59 " />
</g>
		<g transform="matrix(1 0 0 1 0 37.42)"  >
<path style="stroke: none; stroke-width: 1; stroke-dasharray: none; stroke-linecap: butt; stroke-dashoffset: 0; stroke-linejoin: miter; stroke-miterlimit: 4; fill: rgb(255,255,255); fill-rule: nonzero; opacity: 1;" vector-effect="non-scaling-stroke"  transform=" translate(-59.69, -89.67)" d="M 59.68 88.2 C 48.22 88.2 33.68 86.32000000000001 28.07 79.2 L 11.88 79.2 C 13.88 90.08 27.240000000000002 100.14 59.68 100.14 C 92.12 100.14 105.52000000000001 90.08 107.49000000000001 79.2 L 91.3 79.2 C 85.65 86.32 71.14 88.2 59.68 88.2 Z" stroke-linecap="round" />
</g>
		<g transform="matrix(1 0 0 1 -40.62 -11.84)"  >
<polygon style="stroke: none; stroke-width: 1; stroke-dasharray: none; stroke-linecap: butt; stroke-dashoffset: 0; stroke-linejoin: miter; stroke-miterlimit: 4; fill: rgb(255,255,255); fill-rule: nonzero; opacity: 1;" vector-effect="non-scaling-stroke"  points="-7.46,22.59 -5.41,22.59 6.59,1.31 6.59,-13.16 14.71,-13.16 14.71,-22.59 -14.71,-22.59 -14.71,-13.16 -7.46,-13.16 -7.46,22.59 " />
</g>
		<g transform="matrix(1 0 0 1 52.48 38.65)"  >
<path style="stroke: none; stroke-width: 1; stroke-dasharray: none; stroke-linecap: butt; stroke-dashoffset: 0; stroke-linejoin: miter; stroke-miterlimit: 4; fill: rgb(255,255,255); fill-rule: nonzero; opacity: 1;" vector-effect="non-scaling-stroke"  transform=" translate(-112.17, -90.9)" d="M 112.17 88.13 C 111.04963958187689 88.13 110.03959706523707 88.80488883300896 109.61085369494373 89.8399668923487 C 109.1821103246504 90.87504495168842 109.41909976708541 92.06647133485887 110.21131421611327 92.85868578388673 C 111.00352866514112 93.65090023291458 112.19495504831156 93.8878896753496 113.2300331076513 93.45914630505627 C 114.26511116699103 93.03040293476292 114.94 92.02036041812312 114.94 90.89999999999999 C 114.94 89.3701712429687 113.6998287570313 88.13 112.17 88.13 Z M 112.17 93.07 C 111.28736429556554 93.06999071374119 110.49183185323079 92.53776226357935 110.15500360308894 91.72192372763296 C 109.8181753529471 90.90608519168657 110.00652708593178 89.96764893138413 110.63207787827783 89.34496763808555 C 111.25762867062387 88.72228634478695 112.1969209926471 88.53825122923291 113.01120227824366 88.87882688126336 C 113.82548356384024 89.2194025332938 114.35404878758641 90.01737358177547 114.35000000000001 90.89999999999999 C 114.34449501704312 92.10007367290804 113.3700862990156 93.07001262617396 112.17 93.07 Z" stroke-linecap="round" />
</g>
		<g transform="matrix(1 0 0 1 52.47 38.65)"  >
<path style="stroke: none; stroke-width: 1; stroke-dasharray: none; stroke-linecap: butt; stroke-dashoffset: 0; stroke-linejoin: miter; stroke-miterlimit: 4; fill: rgb(255,255,255); fill-rule: nonzero; opacity: 1;" vector-effect="non-scaling-stroke"  transform=" translate(-112.16, -90.9)" d="M 113.31 90.25 C 113.31 89.73085233515906 112.88914766484095 89.31 112.37 89.31 L 111 89.31 L 111 92.48 L 111.6 92.48 L 111.6 91.19 L 112.02 91.19 L 112.61999999999999 92.48 L 113.27999999999999 92.48 L 112.64999999999999 91.14 C 113.04004769137458 91.01830433646812 113.30681024391771 90.65857907622056 113.31 90.25 Z M 112.37 90.6 L 111.63000000000001 90.6 L 111.63000000000001 89.91 L 112.37 89.91 C 112.46017360654545 89.91 112.54665393693111 89.94582132572424 112.61041630560344 90.00958369439657 C 112.67417867427577 90.0733460630689 112.71000000000001 90.15982639345455 112.71000000000001 90.25 C 112.71007734628935 90.43946081745675 112.5593834869555 90.59458684912394 112.37 90.6 Z" stroke-linecap="round" />
</g>
		<g transform="matrix(1 0 0 1 0 -12.11)"  >
<path style="stroke: none; stroke-width: 1; stroke-dasharray: none; stroke-linecap: butt; stroke-dashoffset: 0; stroke-linejoin: miter; stroke-miterlimit: 4; fill: rgb(255,255,255); fill-rule: nonzero; opacity: 1;" vector-effect="non-scaling-stroke"  transform=" translate(-59.69, -40.14)" d="M 68.89 4.36 L 50.48 4.36 L 15.58 66.27 L 4.71 66.27 L 4.71 75.92999999999999 L 45.21 75.92999999999999 L 45.21 66.27 L 33.3 66.27 L 41.3 52 L 78 52 L 86 66.27 L 74.15 66.27 L 74.15 75.92999999999999 L 114.66 75.92999999999999 L 114.66 66.27 L 103.79 66.27 Z M 47 41.9 L 59.68 19.47 L 72.33 41.9 Z" stroke-linecap="round" />
</g>
</g>
</g>
</svg>